<?xml version="1.0" encoding="utf-8"?>
<!-- Generator: Adobe Illustrator 23.0.6, SVG Export Plug-In . SVG Version: 6.00 Build 0)  -->
<svg version="1.1" id="Layer_1" xmlns="http://www.w3.org/2000/svg" xmlns:xlink="http://www.w3.org/1999/xlink" x="0px" y="0px"
	 viewBox="0 0 2145.9 572.3" style="enable-background:new 0 0 2145.9 572.3;" xml:space="preserve">
<style type="text/css">
	.st0{fill:#9C9C9C;stroke:#000000;stroke-miterlimit:10;}
	.st1{fill:#48FFBB;}
	.st2{fill:#FFFFFF;}
	.st3{fill:#67FF51;}
	.st4{fill:#3F49FF;}
	.st5{fill:#3F0680;}
	.st6{fill:#8DBE38;}
	.st7{fill:#3BFF51;}
	.st8{fill:#E6E6E6;}
	.st9{fill:#FF0940;}
	.st10{fill:#6300CE;}
	.st11{fill:#F4DBD1;stroke:#000000;stroke-miterlimit:10;}
	.st12{fill:#FF2416;}
	.st13{fill:#C8E1FF;}
	.st14{fill:#9DB6E3;}
	.st15{fill:#476333;}
	.st16{fill:#FFFFFF;stroke:#000000;stroke-miterlimit:10;}
	.st17{fill:#1FB072;}
	.st18{fill:#D2D436;}
	.st19{fill:#5394FF;}
	.st20{fill:#D7895F;}
	.st21{fill:#A59EFF;}
	.st22{display:none;}
	.st23{display:inline;}
</style>
<g>
	<path class="st8" d="M251.7,0.2c16.9,0,25.4,74.2,25.4,222.5c0,148.3-7.6,222.5-22.9,222.5c-15.3,0-23.3-2.3-24.2-7l-3.8-43.2
		v-33.1c0-6.8-0.9-7.9-2.5-3.5c-1.7,4.4-4.2,14.3-7.6,29.6l-50.9,63.6H86.4l-55.3-42L0,334.6v-95.3l31.8-75.6L90.3,121h116.3
		c6.8,32.2,11.8,47.1,14.9,44.8c3.2-2.3,4.8-21.5,4.8-57.5C226.3,36.2,234.8,0.2,251.7,0.2z M178.6,402.6l47.7-65.5V233.5
		l-47.7-62.9H91.5l-40.7,62.3V339l43.9,63.6H178.6z"/>
	<path class="st8" d="M932.3,151.4c0,18.7-3.4,39-48.3,26.7c-23.2-6.4-29.4-7.6-29.8-5c-0.4,2.5,7.8,11.4,24.8,26.7v100.4
		l-35.6,61.7L783.7,395c-23.7,0-48.3,0.6-73.7,1.9l-33.7,11.4v25.4l14.6,11.4h135.4l66.1,47V559c0,8.9-8.5,13.3-25.4,13.3
		c-17,0-25.4-2.3-25.4-7v-40l-35-31.1H625.5v-83.3l43.9-25.4c20.3,0.4,18.2-4-6.4-13.4L616.6,306v-87.7l36.2-62.9l60.4-34.3h56.6
		c12.3,4.7,39.8,6.6,82.6,5.7c27.5,0,50.3-2,62.2,2.4C926.4,133.6,932.3,139.4,932.3,151.4z M781.2,347.3l47-47.7v-80.7l-47-48.3
		h-66.1l-47.7,47.7v81.4l47.7,47.7H781.2z"/>
	<path class="st8" d="M1121.3,30.7c0,20.8-11,31.1-33.1,31.1c-22,0-33.1-10.4-33.1-31.1c0-20.3,11-30.5,33.1-30.5
		C1110.3,0.2,1121.3,10.4,1121.3,30.7z"/>
	<path class="st8" d="M1497.5,0.2c16.9,0,25.4,74.2,25.4,222.5c0,148.3-7.6,222.5-22.9,222.5c-15.3,0-23.3-2.3-24.2-7l-3.8-43.2
		v-33.1c0-6.8-0.9-7.9-2.5-3.5c-1.7,4.4-4.2,14.3-7.6,29.6l-50.9,63.6h-78.8l-55.3-42l-31.1-75v-95.3l31.8-75.6l58.5-42.6h116.3
		c6.8,32.2,11.8,47.1,14.9,44.8c3.2-2.3,4.8-21.5,4.8-57.5C1472.1,36.2,1480.6,0.2,1497.5,0.2z M1424.4,402.6l47.7-65.5V233.5
		l-47.7-62.9h-87.1l-40.7,62.3V339l43.9,63.6H1424.4z"/>
	<path class="st8" d="M1071.3,457.9h-48l-14.8,0c0,0-35.7,0.7-34.2-20.7c1.3-18.9,29.8-24.7,45.4-26.7c3.8-0.5,16.9-1.5,20.8-1.5
		h17.4l23.3-53.3V239.2l-40.7-62.3h-68.8v-49.6h70l58.5,42.6l26.6,75.6V355l22.6,53.7l0,0h17.4c3.9,0,17,1,20.8,1.5
		c15.7,2,44.1,7.8,45.4,26.7c1.5,21.4-34.2,20.7-34.2,20.7l-14.8,0h-48L1071.3,457.9z"/>
	<path class="st8" d="M483.2,30.7c0,20.8-11,31.1-33.1,31.1c-22,0-33.1-10.4-33.1-31.1c0-20.3,11-30.5,33.1-30.5
		C472.1,0.2,483.2,10.4,483.2,30.7z"/>
	<path class="st8" d="M433.2,457.9h-48l-14.8,0c0,0-35.7,0.7-34.2-20.7c1.3-18.9,29.8-24.7,45.4-26.7c3.8-0.5,16.9-1.5,20.8-1.5
		h17.4l23.3-53.3V239.2l-40.7-62.3h-68.8v-49.6h70l58.5,42.6l26.6,75.6V355l22.6,53.7l0,0h17.4c3.9,0,17,1,20.8,1.5
		c15.7,2,44.1,7.8,45.4,26.7c1.5,21.4-34.2,20.7-34.2,20.7l-14.8,0h-48L433.2,457.9z"/>
	<path class="st8" d="M1816,342.8c16.1,0,21.4,16.1,15.9,48.3l-66.7,60.4h-99.8l-69.3-42l-38.8-75v-95.3l37.5-75.6l68-42.6H1776
		l69.3,92.2c-2.5,57.6-42.6,86.4-120.1,86.4c-78,0-115.5,15.5-112.5,46.4l54.7,56.6h106.2C1785.3,362.8,1799.5,342.8,1816,342.8z
		 M1667.3,169.9l-46.4,44.5c-6.4,26.3,20.1,39.4,79.5,39.4c59.3,0,88.1-13.6,86.4-40.7l-43.9-43.2H1667.3z"/>
	<path class="st8" d="M2066.4,121l47,21l32.4,50.9v146.8c0,70.3-8.5,105.5-25.4,105.5c-17,0-25.4-33.1-25.4-99.2V171.9h-113.8
		l-45.1,54.7c-5.9,22.9-8.9,64.8-8.9,125.9c0,61.9-8.5,92.8-25.4,92.8c-17,0-25.4-53-25.4-158.9c0-105.9,8.5-158.9,25.4-158.9
		c16.9,0,25.4,15.7,25.4,47c0,31.8,3.8,35.4,11.4,10.8l57.2-64.2H2066.4z"/>
</g>
</svg>
